<svg xmlns="http://www.w3.org/2000/svg" viewBox="0 0 64 64">
  <path d="M32 2C15.432 2 2 15.432 2 32s13.432 30 30 30 30-13.432 30-30S48.568 2 32 2zm0 4a25.98 25.98 0 0 1 17.646 6.91 3.5 3.5 0 0 0-.674.09c-1.442 0-2.884.432-4.038 1.296-.865.576-2.02 2.303-3.462 4.606-1.442 2.303-3.174 5.183-4.616 7.487-.577.864-1.154 1.727-1.73 2.59v-9.52c0-1.152.865-2.016 1.73-2.016h.866V9h-5.196v4.318h.866c.866 0 1.73.864 1.73 2.016v9.52c-.576-.864-1.153-1.726-1.73-2.59-1.442-2.304-3.174-5.184-4.616-7.488-1.442-2.303-2.597-4.03-3.462-4.607C23.373 9.333 21.93 8.9 20.49 8.9h-.34A25.98 25.98 0 0 1 32 6zm3.462 31.183c.865 0 1.73.288 2.307.864.577.576.866 1.15.866 2.016 0 .864-.29 1.44-.866 2.015-.577.576-1.442.865-2.307.865s-1.73-.29-2.308-.865c-.577-.576-.865-1.15-.865-2.015 0-.865.288-1.44.865-2.016.577-.576 1.443-.864 2.308-.864zm-9.52 0c.866 0 1.73.288 2.308.864.577.576.866 1.15.866 2.016 0 .864-.29 1.44-.866 2.015-.577.576-1.442.865-2.307.865s-1.73-.29-2.307-.865c-.577-.576-.866-1.15-.866-2.015 0-.865.29-1.44.866-2.016.577-.576 1.442-.864 2.307-.864zm3.183 12.987c-1.73 0-3.462.288-5.193.288-2.02 0-4.328-.288-6.924-1.44L5.771 43.35A26.035 26.035 0 0 0 32 58c11.25 0 20.99-7.108 24.67-17.074L43.78 49.018c-2.596 1.152-4.904 1.44-6.924 1.44-1.73 0-3.462-.288-5.193-.288h-2.538zM33.731 31.47c.288 0 .577 0 .577.288h.288c.865.288 1.73.864 2.307 1.44.577.575.866 1.438.866 2.302v.288c-.29.576-.578.864-.866 1.44 0 0 0 .287-.288.287 0 .288-.289.288-.289.288h-.288c-.577.287-1.154.575-1.73.575h-.865c-.866 0-1.443-.287-2.02-.575h-.288c-.288 0-.288 0-.288-.288h-.289c-.288-.287-.577-.575-.865-1.151v-1.152-.288c0-.287 0-.287.288-.575 0-.288.289-.288.289-.576.288-.288.577-.576.865-.576.288-.288.577-.288.866-.576h.577c.288 0 .577-.288.865-.288h.288v.288z" fill="#2c5530" fill-rule="evenodd"/>
</svg>
