<svg xmlns="http://www.w3.org/2000/svg" viewBox="0 0 64 64">
  <path d="M59.7 33.4L49.5 15.7c-.4-.7-1.1-1.1-1.9-1.1h-20.3c-.7 0-1.5.4-1.9 1.1L15.3 33.4c-.4.7-.4 1.5 0 2.2l10.1 17.7c.4.7 1.1 1.1 1.9 1.1h20.3c.7 0 1.5-.4 1.9-1.1l10.1-17.7c.4-.7.4-1.5.1-2.2zm-11.7-12c.3-.5.7-.8 1.2-.8h4.7c.5 0 1 .3 1.2.8l4.2 7.3c.3.5.3 1 0 1.5l-4.2 7.3c-.3.5-.7.8-1.2.8h-4.7c-.5 0-1-.3-1.2-.8l-4.2-7.3c-.3-.5-.3-1 0-1.5l4.2-7.3zm-12.5-4.3c.3-.5.7-.8 1.2-.8h4.7c.5 0 1 .3 1.2.8l4.2 7.3c.3.5.3 1 0 1.5L42.7 33c-.3.5-.7.8-1.2.8h-4.7c-.5 0-1-.3-1.2-.8l-4.2-7.3c-.3-.5-.3-1 0-1.5l4.1-7.1zm-12.5 4.3c.3-.5.7-.8 1.2-.8h4.7c.5 0 1 .3 1.2.8l4.2 7.3c.3.5.3 1 0 1.5l-4.2 7.3c-.3.5-.7.8-1.2.8h-4.7c-.5 0-1-.3-1.2-.8l-4.2-7.3c-.3-.5-.3-1 0-1.5l4.2-7.3zm-6.3 11c.3-.5.7-.8 1.2-.8h4.7c.5 0 1 .3 1.2.8l4.2 7.3c.3.5.3 1 0 1.5l-4.2 7.3c-.3.5-.7.8-1.2.8h-4.7c-.5 0-1-.3-1.2-.8l-4.2-7.3c-.3-.5-.3-1 0-1.5l4.2-7.3zm12.5 16c.3-.5.7-.8 1.2-.8h4.7c.5 0 1 .3 1.2.8l4.2 7.3c.3.5.3 1 0 1.5l-4.2 7.3c-.3.5-.7.8-1.2.8h-4.7c-.5 0-1-.3-1.2-.8l-4.2-7.3c-.3-.5-.3-1 0-1.5l4.2-7.3zm12.5-4c.3-.5.7-.8 1.2-.8h4.7c.5 0 1 .3 1.2.8l4.2 7.3c.3.5.3 1 0 1.5l-4.2 7.3c-.3.5-.7.8-1.2.8h-4.7c-.5 0-1-.3-1.2-.8l-4.2-7.3c-.3-.5-.3-1 0-1.5l4.2-7.3z" fill="#E3A11F"/>
</svg>
