<svg xmlns="http://www.w3.org/2000/svg" viewBox="0 0 64 64">
  <path d="M61.44 28.34c-1.79-2.63-5.22-4.11-8.64-1.58-.58-9.88-5.38-16.3-10.59-19.54-3.68-2.24-7.2-2.92-10.17-2.92-3.18 0-6.98.65-10.79 3.2-5.02 3.37-9.45 9.74-9.8 19.2-3.49-2.39-6.9-0.74-8.65 1.82-1.75 2.56-3.2 8.15 1.27 11.61.31.32.68.57 1.07.75 2.34 6.31 7.92 8.95 12.36 9.96 2.58 9.41 8.37 9.57 9.29 9.73h2.95c5.1-.12 6.64-1.87 8.4-9.8 4.61-1.29 10.1-4.22 12.29-10.51.33-.13.63-.33.88-.6 4.29-3.42 2.92-8.69 1.13-11.32zM32.04 7.3c2.61 0 5.62.58 8.79 2.5 4.61 2.8 8.74 8.6 9.27 17.36-1.62.58-2.85.82-5.21-.05-3.48-1.27-4.16-6.7-4.16-6.7-.35-3.05-2.87-4.11-5.38-4.11-2.94 0-5.82 1.66-5.82 5.07 0 1.62.53 3.37 1.62 4.87-.88 1.12-1.4 2.5-1.44 3.92-2.59-1.17-4.93.26-5.73 1.06-.17-.99-.35-2.34-.35-3.79 0-2.15.35-4.7 1.8-7.23 1.44-2.53 4-5.02 8.16-6.7 3.16-1.51 6.08-2.24 9.24-1.27 2.76.84 4.11 2.43 4.64 3.74.53 1.3.26 2.43-.88 2.8-.99.33-2.09-.05-2.76-1.06-.82-1.27-2.58-1.62-3.87-.87-1.3.75-1.66 2.51-.91 3.81.84 1.48 2.73 1.95 4.32 1.13 4.11-2.15 4.11-6.84 1.89-10.31-2.23-3.49-7.48-5.51-13.11-3.46-5.58 2.04-9.17 5.87-11.14 9.91-1.96 4.05-2.27 8.37-1.72 12.3.13.97.35 1.73.54 2.15-.74-.88-1.99-1.79-3.64-1.69-.66.04-1.23.24-1.73.49.32-8.55 4.31-14.16 8.67-17.11 3.28-2.22 6.54-2.8 9.4-2.8h.7zM14.6 37.75c-2.36-1.8-1.41-5.34-.21-7.12 1.21-1.77 3.4-2.94 5.69-1 1.08.92 1.54 2.15 1.75 3.4.21 1.26.15 2.53.08 3.59-.02.26-.05.5-.07.74-2.12 1.65-4.1 4.2-5.54 7.14-1.72-.82-3.8-2.47-5.46-5.08.94-.44 2.32-1.19 3.76-1.67zm16.1-7.12c1.67 0 3.02 1.36 3.02 3.02 0 1.67-1.35 3.03-3.02 3.03-1.67 0-3.03-1.36-3.03-3.03 0-1.66 1.36-3.02 3.03-3.02zm8.16 16.33c-1.14 0-2.68-.17-4.34-.95-1.67-.79-3.49-2.26-4.64-5.05-.96-2.32.02-2.6 2.18-2.41 2.53.22 5.82 1.8 7.32 3.42 1.3 1.4 2.32 2.37 2.53 4.28.08.63-1.12.89-1.6.89-1.44-.18-1.45-.18-1.45-.18zM33.3 55.46c-3.6.07-1.95-2.75-3.2-2.75-1.75 0 1.24 2.77-2.86 2.97v.01h-.26v-.01c-4.11-.2-1.13-2.97-2.87-2.97-1.25 0 .4 2.82-3.2 2.75 0 0-.63 0-.63-1.03 0-1.03 1.3-9.02.84-12.2 2.36.86 4.52.83 5.36.77.68-.04 1.12-.08 1.12-.08s.45.04 1.13.08c.84.06 3 .09 5.36-.77-.46 3.18.84 11.17.84 12.2.01 1.03-.63 1.03-.63 1.03zm5.57-19.84c.03-.19.05-.39.06-.58.19-1.78.36-5.18-1.04-7.68-1.39-2.51-4.35-3.27-6.13-.33-.62 1.03-.65 2.47-.18 3.8.46 1.33 1.38 2.5 2.6 3.24 1.22.75 2.74 1.07 4.69 1.55zm9.49 8.31c-1.44-2.94-3.42-5.49-5.54-7.14-.02-.24-.05-.48-.07-.74-.07-1.06-.13-2.33.08-3.59.21-1.25.67-2.48 1.75-3.4 2.29-1.94 4.48-.76 5.69 1 1.2 1.78 2.15 5.33-.21 7.12 1.44.48 2.82 1.23 3.76 1.67-1.66 2.61-3.74 4.26-5.46 5.08zm.21-28c-1.64.45-2.58 2.18-2.13 3.82.46 1.64 2.18 2.58 3.82 2.13 1.64-.45 2.58-2.17 2.13-3.82-.45-1.64-2.18-2.58-3.82-2.13zm-5.52 29.91c.21-1.91 1.23-2.88 2.53-4.28 1.5-1.62 4.78-3.2 7.32-3.42 2.16-.19 3.14.09 2.18 2.41-1.15 2.79-2.97 4.26-4.64 5.05-1.66.78-3.2.95-4.34.95 0 0-.01 0-1.45.18-.48 0-1.68-.26-1.6-.89z" fill="#E3A11F"/>
</svg>
